<svg xmlns="http://www.w3.org/2000/svg" width="104" height="25" viewBox="0 0 104.032 25" fill-rule="evenodd" stroke-width="0">
  <path d="M0,0v5.25h6.434v19.75h5.68V5.25h6.434V0H0ZM67.177,0l-4.186,15.352h-.07l-3.768-15.352h-6.14l-3.837,15.352h-.07L44.92,0h-6.21l7.745,25h5.337l4.326-16.444h.035l4.152,16.444h5.337L73.387,0h-6.21ZM77.464,0l-8.916,25h6.001l1.406-4.472h8.54l1.439,4.472h6L82.951,0s-5.487,0-5.487,0ZM80.174,7.113h.068l2.675,8.415h-5.384l2.64-8.415h0Z" />
  <path d="M89.516,0l9.251,25h5.265L94.781,0h-5.265Z" />
  <path d="M39.516,18.028c0,4.014-2.58,6.972-7.812,6.972h-10.736V0h9.222c5.437,0,8.053,2.254,8.053,6.092,0,2.147-.895,4.4-3.545,5.528v.07c3.304.916,4.818,3.24,4.818,6.338ZM26.611,9.965h2.719c1.72,0,3.097-.81,3.097-2.395,0-1.408-.998-2.394-3.303-2.394h-2.514v4.789h0ZM33.528,17.218c0-1.549-1.135-2.64-3.613-2.64h-3.304v5.281h3.304c2.134,0,3.613-.88,3.613-2.64h0Z" />
</svg>