<svg xmlns="http://www.w3.org/2000/svg" width="281" height="111" viewBox="0 0 281.791 111.671" stroke-width="0">
  <path d="M237.155,68.317c-.088-.53-.088-.991,2.551-1.815,2.63-.814,9.028-2.983,12.914-5.132,3.886-2.169,4.534-2.473,5.446-1.864.913.599.648,2.07.648,3.111v10.539c1.423-2.335,6.094-10.107,9.803-12.394,2.914-1.806,3.945-1.953,5.75-1.992,2.169-.039,7.291,1.295,7.517,6.702.177,4.229-2.944,5.927-4.926,5.662-1.59-.226-2.728-1.688-3.67-3.16-.952-1.492-2.463-2.375-3.974-1.864-1.511.52-9.98,6.015-10.46,13.826-.343,5.75,0,23.678,0,23.678,0,2.718,1.04,3.768,2.257,4.494,1.207.736,5.652.775,6.898.952,1.266.177,1.217.471,1.217.864,0,.383,0,.569-1.119.569h-29.772c-.952,0-1.335-.186-1.335-.746,0-.775,1.246-.638,2.198-.775.952-.128,5.986.285,7.428-2.247,1.06-1.658.932-4.327.932-4.327l-.147-31.489c0-2.542-.756-2.914-1.452-3.317-.707-.402-1.874-.618-4.337.216-2.326.765-3.925,1.482-4.367.51" />
  <path d="M133.032,68.326c-.402-.775.343-1.276,2.551-1.855,2.463-.657,7.86-2.296,12.138-4.72,4.278-2.414,5.014-2.669,5.917-2.375.913.304.824,1.904.824,3.199v40.743c0,2.286.304,3.238,1.335,4.19,1.04.952,3.631,1.511,6.997,1.511,1.521,0,1.992.177,1.992.824s-.471.648-1.079.648h-29.546c-.913,0-1.128-.393-1.128-.775,0-.481.402-.785,1.776-.785,1.158,0,6.506.402,7.723-2.375.471-1.06.697-2.542.697-3.925v-32.323c0-2.453-1.904-3.542-4.102-3.013-2.571.589-5.564,2.041-6.094,1.03" />
  <path d="M148.094,40.144c4.013,0,7.271-3.258,7.271-7.261s-3.258-7.261-7.271-7.261-7.252,3.248-7.252,7.261,3.248,7.261,7.252,7.261" />
  <path d="M183.607,86.352c1.462,13.218,9.332,23.502,19.086,21.775,9.774-1.727,14.67-11.059,13.493-26.004-1.207-15.2-8.724-22.785-18.841-21.873-10.46.952-15.21,12.874-13.738,26.102M193.282,57.925c12.59-2.355,30.498.422,34.57,20.126,4.062,19.704-9.499,30.194-21.264,32.755-11.501,2.492-31.028.716-34.561-20.479-3.179-19.027,10.627-30.42,21.254-32.402" />
  <path d="M44.226,107.303h7.301c27.162,0,34.453-2.522,44.01-15.22s10.696-30.93,10.696-37.092-1.639-21.627-11.196-34.708C85.469,7.203,69.504,3.807,55.54,3.807h-11.373c-2.699,0-2.836,1.197-2.836,3.081v98.02c0,2.139.756,2.394,2.895,2.394M0,109.599c0-.991,1.285-1.158,2.483-1.197,13.826-.393,16.407-.873,17.987-2.512.864-.903,2.129-1.639,2.129-8.046V9.685C22.599,1.766,12.982,3.022,6.192,2.326c-2.385-.236-2.581-.559-2.581-1.256,0-.687.451-1.021,1.698-1.07h55.707c61.251,0,64.382,44.776,64.382,56.718,0,25.66-16.966,53.882-52.43,53.882H1.786c-.873,0-1.786-.118-1.786-1.001" />
</svg>