<svg xmlns="http://www.w3.org/2000/svg" width="175" height="23" viewBox="0 0 175.75 23.045" fill="#231f20" fill-rule="evenodd" stroke-width="0">
  <path d="M61.914,9.538c.648.355,1.473.535,2.434.535.977,0,1.762-.18,2.438-.535.688-.328,1.008-.754,1.008-1.223,0-.5-.32-.891-1.008-1.219-.676-.359-1.461-.535-2.438-.5-.961-.035-1.758.141-2.434.5-.68.328-.996.719-.996,1.219,0,.469.316.895.996,1.223" />
  <path d="M110.855,9.495c.648.328,1.477.504,2.441.504.93,0,1.758-.176,2.434-.504.688-.355,1.008-.754,1.008-1.215,0-.504-.32-.93-1.008-1.25-.676-.324-1.504-.508-2.434-.508-.965,0-1.754.184-2.441.508-.676.32-.996.746-.996,1.25,0,.461.32.859.996,1.215" />
  <path d="M173.957,19.026h-41.969c-8.801-1.121-9.613-4.941-9.855-6.312v-.012c0-.086-.035-.832-.047-1.078.008-.039.023-.07.031-.109.773-4.129,3.969-6.426,9.754-7.031h41.98c.992,0,1.785-.801,1.785-1.793s-.793-1.793-1.785-1.793h-42.105c-.062,0-.117.008-.176.012-9.355.957-12.223,5.926-12.965,9.93-.086.215-.125.449-.113.699l.086,1.578c0,.07,0,.059.008.121.27,1.582.863,2.973,1.766,4.172l-7.945-4.422L89.887.483c-.562-.461-1.375-.555-2.039-.164l-30.301,17.668V2.12c0-.988-.805-1.793-1.793-1.793-.172,0-.332.031-.484.074-.246.008-.492.062-.727.176l-26.875,12.969c-.129.062-.242.141-.348.227l-2.883,1.426,3.098,1.559c.262.133.539.188.816.188.293.016.594-.031.875-.168l24.734-11.938v15.98c0,.535.234,1.008.605,1.336.551.652,1.504.84,2.27.387l10.699-6.234c.02.004.035.012.055.012l6.043-3.559h-.012l15.121-8.812,15.883,8.812h-27.895l-6.141,3.582h40.492l11.629,6.477c.863.48,1.957.172,2.434-.695.188-.336.25-.707.211-1.066,1.762.727,3.859,1.238,6.281,1.539.07.008.141.02.219.02h42.102c.988,0,1.793-.801,1.793-1.797s-.805-1.793-1.793-1.793" />
  <path d="M2.668.194C1.789-.255.707.104.266.983c-.125.242-.18.5-.188.754-.047.156-.078.32-.078.492v18.695c0,.992.801,1.797,1.793,1.797.984,0,1.789-.805,1.789-1.797V4.674l19.133,9.652,4.023-1.98L2.668.194" />
</svg>