<svg xmlns="http://www.w3.org/2000/svg" width="849" height="311" viewBox="0 0 849.947 311.989" stroke-width="0">
  <path d="M12.128,263.681h6.703v20.109h25.696v-20.109h6.48v46.922h-6.48v-21.45h-25.696v21.45h-6.703v-46.922Z" />
  <path d="M154.906,293.622c0,11.842-7.151,18.098-19.44,18.098-12.513,0-20.109-5.586-20.109-18.098v-29.941h6.703v29.941c0,8.267,4.916,12.959,13.406,12.959,8.267,0,12.96-4.692,12.96-12.959v-29.941h6.48v29.941Z" />
  <path d="M236.014,311.944c-14.747.894-23.684-11.619-23.684-23.908,0-13.63,7.82-25.472,23.461-25.472,10.725,0,19.215,4.469,21.003,15.641h-6.479c-1.341-7.15-7.374-10.502-14.524-10.502-12.066,0-16.981,10.055-16.981,20.109,0,9.831,6.257,19.216,18.099,18.992,6.032-.223,10.948-1.341,13.406-5.363,1.787-2.458,1.34-6.927,1.117-10.278h-15.641v-5.363h21.45v17.652c-5.586,6.927-12.289,8.044-21.227,8.491Z" />
  <path d="M337.455,306.581c11.842,0,16.981-10.055,16.981-19.439s-5.139-19.439-16.981-19.439c-12.066,0-16.981,10.055-16.981,19.439s4.916,19.439,16.981,19.439ZM337.455,262.564c15.641,0,23.461,11.842,23.461,24.578s-7.82,24.578-23.461,24.578-23.462-11.842-23.462-24.578,7.82-24.578,23.462-24.578Z" />
  <path d="M492.521,283.791h12.96c7.374,0,10.502-2.458,10.502-7.373,0-6.48-4.692-7.597-10.502-7.597h-12.96v14.97ZM492.521,305.464h16.311c5.586,0,9.161-3.352,9.161-8.491,0-6.033-5.139-7.82-10.725-7.82h-14.747v16.311ZM486.042,263.681h17.652c4.469,0,10.054,0,12.959,1.564,3.351,2.011,5.809,5.363,5.809,9.831,0,5.139-2.681,8.938-7.15,10.725h0c6.032,1.117,9.385,5.586,9.385,11.395,0,6.927-5.363,13.406-14.971,13.406h-23.684v-46.922Z" />
  <path d="M606.699,306.581c12.066,0,16.981-10.055,16.981-19.439s-4.916-19.439-16.981-19.439c-11.842,0-16.981,10.055-16.981,19.439s5.139,19.439,16.981,19.439ZM606.699,262.564c15.641,0,23.684,11.842,23.684,24.578s-8.044,24.578-23.684,24.578-23.461-11.842-23.461-24.578,7.82-24.578,23.461-24.578Z" />
  <path d="M720.429,277.534c-.67-6.927-5.363-9.831-12.066-9.831-5.586,0-10.949,2.011-10.949,8.044,0,5.809,7.82,6.703,15.641,8.491,7.821,1.564,15.641,4.245,15.641,13.63,0,9.831-10.279,13.853-19.216,13.853-10.948,0-20.109-5.139-20.109-16.534h6.033c0,7.82,6.926,11.395,14.3,11.395,6.033,0,12.513-1.787,12.513-8.714,0-6.48-7.82-7.374-15.641-9.161-7.82-1.564-15.864-3.798-15.864-12.513,0-9.384,8.938-13.63,17.875-13.63,10.055,0,17.652,4.469,18.099,14.97h-6.256Z" />
  <path d="M826.339,277.534c-.894-6.927-5.585-9.831-12.289-9.831-5.363,0-10.948,2.011-10.948,8.044,0,5.809,7.82,6.703,15.864,8.491,7.82,1.564,15.641,4.245,15.641,13.63,0,9.831-10.278,13.853-19.215,13.853-10.949,0-20.333-5.139-20.333-16.534h6.256c0,7.82,6.927,11.395,14.3,11.395,5.809,0,12.513-1.787,12.513-8.714,0-6.48-8.044-7.374-15.864-9.161-7.821-1.564-15.641-3.798-15.641-12.513,0-9.384,8.714-13.63,17.875-13.63,9.832,0,17.652,4.469,17.875,14.97h-6.033Z" />
  <path d="M69.775,15.664v84.46h30.611s2.681-.223,4.245-.67c17.875-1.564,29.271-23.014,30.387-38.655,1.788-16.758-8.491-44.464-34.186-45.135-7.598-.224-31.058,0-31.058,0ZM69.775,109.955v101.218h27.706s15.641,1.117,29.717-10.278c13.853-11.172,21.003-27.706,19.44-46.699-1.117-16.981-14.077-41.113-43.124-44.241h-33.739ZM135.019,5.833c23.015,1.341,37.985,13.63,39.326,15.194,11.842,10.949,15.417,27.483,12.513,43.347-3.798,26.589-36.867,37.761-36.867,37.761,27.706,3.352,48.486,24.131,51.614,46.475,2.682,21.897-5.362,41.336-23.461,54.966-18.322,13.63-45.135,18.099-59.658,18.099H.063v-9.384c15.194.223,16.981.223,16.981-5.809-.223-22.791,0-181.879,0-186.125,0-4.916-2.458-5.139-16.981-5.139-.223-3.798.223-9.384.223-9.384h134.733Z" />
  <path d="M317.792,17.451c-14.747,9.831-25.025,32.399-29.94,51.168-7.821,28.377-6.257,61.893,1.564,96.302,8.044,34.41,30.164,46.475,43.347,49.38,24.578,5.586,40.666-8.714,49.38-21.897,16.981-25.695,21.227-78.65,15.864-109.038-4.916-28.153-12.513-47.816-27.259-60.999-16.534-14.523-40.219-13.406-52.956-4.916ZM450.292,151.068c-10.279,30.611-30.835,49.827-54.519,62.339-31.058,16.758-75.522,19.439-106.581.894-19.215-11.395-68.148-41.783-61.669-113.507,1.341-15.417,9.161-54.072,52.285-83.119,29.493-19.216,71.947-24.802,111.496-6.48,61.669,28.153,74.629,97.643,58.988,139.873Z" />
  <path d="M631.5,15.887c.223,16.088,0,49.38,0,49.38l-7.82.223c-4.692-20.78-14.747-38.655-31.952-46.922-16.534-8.044-41.56-12.066-57.871,2.234-9.607,8.491-10.948,17.205-7.597,27.036,5.81,14.524,21.897,18.992,34.41,24.578,10.279,4.022,32.175,11.172,32.175,11.172,24.355,8.491,51.391,25.025,58.765,52.508,3.351,11.842,3.351,25.249.67,37.314-6.033,26.813-23.237,33.292-33.069,39.996-4.916,3.352-50.944,21.003-106.357,2.905-11.396-3.799-24.579-8.267-24.579-8.267v-60.105s6.033.223,8.491.223c3.798,9.608,7.151,21.227,15.194,32.846,18.768,27.26,45.358,35.527,74.628,29.271,11.619-2.681,24.355-10.725,27.706-22.791,4.245-13.63,2.904-36.197-38.208-51.391-29.717-13.63-67.032-19.216-84.683-52.285-6.927-18.545-4.916-50.721,17.875-66.361,23.015-15.641,45.358-19.216,72.394-15.641,26.813,3.798,33.963,7.373,49.827,14.077Z" />
  <path d="M827.233,15.887c.224,16.088,0,49.38,0,49.38l-7.82.223c-4.692-20.78-14.747-38.655-31.951-46.922-16.535-8.044-41.56-12.066-57.871,2.234-9.607,8.491-10.948,17.205-7.597,27.036,5.81,14.524,21.897,18.992,34.41,24.578,10.279,4.022,32.175,11.172,32.175,11.172,24.355,8.491,51.391,25.025,58.765,52.508,3.351,11.842,3.351,25.249.67,37.314-6.033,26.813-23.237,33.292-33.069,39.996-4.916,3.352-50.944,21.003-106.357,2.905-11.395-3.799-24.578-8.267-24.578-8.267v-60.105s6.033.223,8.491.223c3.798,9.608,7.151,21.227,15.194,32.846,18.768,27.26,45.358,35.527,74.629,29.271,11.619-2.681,24.355-10.725,27.706-22.791,4.245-13.63,2.904-36.197-38.208-51.391-29.717-13.63-67.032-19.216-84.683-52.285-6.927-18.545-4.916-50.721,18.098-66.361,22.791-15.641,45.135-19.216,71.948-15.641,27.036,3.798,34.186,7.373,50.05,14.077Z" />
</svg>