<svg width="573" height="100" viewBox="0 0 573 100" fill="none" xmlns="http://www.w3.org/2000/svg">
<path d="M202.1 83L223.3 36.4H231.3L202.1 100L172.8 36.4H180.9L202.1 83ZM268 36.3H260.8V96.1H268V58.3C268 48 275.6 41.3 285 41.3C294.4 41.3 301.6 48.9 301.6 58.3V96.1H308.8V58.3C308.8 45.1 298.1 34.4 284.9 34.4C278.3 34.4 271.7 36.9 268 42.1V36.3ZM362.5 41.9L400.6 0.5H390.8L350.8 44V0.5H343.6V96.1H350.8V54.6L357.5 47.4L391.5 96.1H400.3L362.5 41.9ZM165.6 0.5H158.4V96.1H165.6V0.5ZM418.5 0.5H411.3V96.1H418.5V0.5ZM532.1 36.3H525V96.1H532.2V58.3C532.2 48 539.8 41.3 549.2 41.3C558.6 41.3 565.8 48.9 565.8 58.3V96.1H573V58.3C573 45.1 562.3 34.4 549.1 34.4C542.5 34.4 535.9 36.9 532.2 42.1V36.3H532.1ZM112.7 90.7C99.1 90.7 88.1 79.7 88.1 66.1C88.1 52.5 99.1 41.5 112.7 41.5C126.3 41.5 137.3 52.5 137.3 66.1C137.3 79.7 126.3 90.7 112.7 90.7ZM137.8 85.5V96.1H145V36.3H137.8V47V46.9C132 39.3 123 34.5 112.8 34.5C95.4 34.5 81.3 48.6 81.3 66C81.3 83.4 95.4 97.5 112.8 97.5C123 97.5 132.1 92.6 137.8 85.1V85.5ZM485 59.4H437.7L437.6 59.5C440.5 49.2 450 41.5 461.3 41.5C472.7 41.4 482.2 49 485 59.4ZM483.5 77C479.4 85.1 471.1 90.6 461.5 90.6C448.1 90.6 437.2 79.9 436.9 66.5H437H493H493.1C493.1 66.3 493.1 66.2 493.1 66C493.1 48.6 479 34.5 461.6 34.5C444.2 34.5 430.1 48.6 430.1 66C430.1 83.4 444.2 97.5 461.6 97.5C474 97.5 484.8 90.3 490 79.8L483.5 77ZM7.6 48.8C7.6 26.2 25.9 7.4 48.6 7.4C58.2 7.4 67.1 10.7 74 16.3L79.2 10.9C70.9 4.1 60.2 0 48.5 0C21.7 0 0 22.1 0 48.8C0 75.6 21.7 97.6 48.5 97.6C60.1 97.6 70.8 93.5 79.2 86.7L74 81.3C67 86.8 58.2 90.2 48.6 90.2C26 90.2 7.6 71.5 7.6 48.8ZM247.9 36.3H240.7V96.1H247.9V36.3ZM244.5 9.2C246.9 9.2 248.9 7.2 248.9 4.8C248.9 2.4 246.9 0.4 244.5 0.4C242.1 0.4 240.1 2.4 240.1 4.8C240.1 7.2 242 9.2 244.5 9.2ZM511.5 36.3H504.3V96.1H511.5V36.3ZM508 9.2C510.4 9.2 512.4 7.2 512.4 4.8C512.4 2.4 510.4 0.4 508 0.4C505.6 0.4 503.6 2.4 503.6 4.8C503.7 7.2 505.6 9.2 508 9.2Z" fill="black"/>
</svg>
